<?xml version="1.0" encoding="utf-8"?>

<svg xmlns="http://www.w3.org/2000/svg" width="2rem" height="2rem" viewBox="0 0 11 15" fill="currentColor">
                    <path
                        d="M5.4739 3.44519C5.40419 3.44698 5.33783 3.47547 5.28853 3.52478C5.23922 3.57408 5.21073 3.64044 5.20894 3.71015V6.60707L4.43172 5.82985C4.38253 5.78066 4.31581 5.75302 4.24625 5.75302C4.17668 5.75302 4.10996 5.78066 4.06077 5.82985C4.01158 5.87904 3.98395 5.94575 3.98395 6.01532C3.98395 6.08489 4.01158 6.1516 4.06077 6.20079L5.29726 7.43728C5.35168 7.48301 5.42049 7.50807 5.49157 7.50807C5.56265 7.50807 5.63145 7.48301 5.68587 7.43728L6.92236 6.20079C6.97155 6.1516 6.99919 6.08489 6.99919 6.01532C6.99919 5.94575 6.97155 5.87904 6.92236 5.82985C6.87317 5.78066 6.80645 5.75302 6.73689 5.75302C6.66732 5.75302 6.6006 5.78066 6.55141 5.82985L5.77419 6.60707V3.72782C5.76273 3.65401 5.72697 3.58614 5.67257 3.53494C5.61818 3.48375 5.54827 3.45217 5.4739 3.44519Z"
                        fill="#3E3E40"></path>
                    <path
                        d="M10.1031 3.92731L10.1031 3.92724L10.0997 3.92733C10.0086 3.92966 9.92194 3.96688 9.85753 4.03129C9.79312 4.0957 9.75591 4.18238 9.75357 4.27344L9.75354 4.27344V4.27558V13.2134C9.75268 13.3363 9.70347 13.454 9.61654 13.5409C9.52961 13.6278 9.41195 13.677 9.28902 13.6779H1.62329C1.50036 13.677 1.38271 13.6278 1.29578 13.5409C1.20884 13.454 1.15963 13.3363 1.15877 13.2134V1.41426C1.15963 1.29133 1.20884 1.17366 1.29578 1.08673C1.38271 0.999788 1.50038 0.950573 1.62332 0.949719H7.12159L7.12159 2.50917L7.12159 2.50991C7.12409 2.7887 7.23595 3.05536 7.43309 3.25251C7.63023 3.44965 7.8969 3.56151 8.17569 3.56401H8.17643L10.0842 3.56402L10.0852 3.564C10.1528 3.56314 10.2188 3.54331 10.2757 3.50675C10.3325 3.4702 10.378 3.4184 10.4068 3.35727L10.4073 3.35749L10.4103 3.3486C10.432 3.28484 10.4373 3.21662 10.4256 3.15028C10.4139 3.08395 10.3856 3.02165 10.3434 2.96918L10.3437 2.96887L10.3374 2.96251L7.72397 0.349107C7.6854 0.308309 7.63692 0.278182 7.58325 0.261667C7.53227 0.245981 7.47826 0.243085 7.42599 0.253164L1.64071 0.253163L1.64031 0.253165C1.32832 0.254664 1.02954 0.379265 0.808928 0.599876C0.588317 0.820487 0.463716 1.11927 0.462217 1.43126H0.462216V1.43166L0.462215 13.2313L0.462217 13.2317C0.463716 13.5437 0.588317 13.8425 0.808928 14.0631C1.02954 14.2837 1.32832 14.4083 1.64031 14.4098H1.64071L9.28927 14.4098L9.28967 14.4098C9.60166 14.4083 9.90044 14.2837 10.1211 14.0631C10.3417 13.8425 10.4663 13.5437 10.4678 13.2317V13.2313V4.27558H10.468L10.4675 4.26894C10.4601 4.17687 10.4187 4.09085 10.3513 4.02767C10.284 3.9645 10.1954 3.92872 10.1031 3.92731ZM8.17643 2.84979L8.17576 2.84979C8.12869 2.85017 8.08202 2.84118 8.03845 2.82335C7.99489 2.80551 7.95532 2.77918 7.92204 2.7459C7.88875 2.71262 7.86242 2.67304 7.84459 2.62948C7.82675 2.58592 7.81776 2.53925 7.81815 2.49218V2.4915V1.42083L9.24711 2.84979L8.17643 2.84979Z"
                        fill="#3E3E40" stroke="#3E3E40" stroke-width="0.166632"></path>
                    <path
                        d="M3.3012 10.2458C3.27078 10.2448 3.24048 10.2501 3.21218 10.2613C3.18387 10.2725 3.15817 10.2894 3.13664 10.3109C3.11512 10.3324 3.09824 10.3581 3.08705 10.3864C3.07586 10.4147 3.07059 10.445 3.07157 10.4755V12.1006C3.06886 12.1322 3.0728 12.1641 3.08314 12.1942C3.09349 12.2242 3.11 12.2518 3.13163 12.2751C3.15325 12.2983 3.17951 12.3169 3.20872 12.3294C3.23792 12.3419 3.26942 12.3482 3.3012 12.3479C3.33339 12.3497 3.36558 12.3444 3.39548 12.3324C3.42538 12.3203 3.45225 12.3018 3.47419 12.2782C3.49612 12.2546 3.51257 12.2264 3.52236 12.1957C3.53216 12.165 3.53505 12.1325 3.53084 12.1006V11.659H3.88412C3.97873 11.6661 4.07377 11.6527 4.16273 11.6197C4.25169 11.5867 4.33248 11.5349 4.39957 11.4678C4.46666 11.4008 4.51847 11.32 4.55146 11.231C4.58444 11.142 4.59782 11.047 4.59069 10.9524C4.59461 10.857 4.57842 10.7619 4.54318 10.6732C4.50793 10.5846 4.45441 10.5043 4.3861 10.4376C4.31779 10.371 4.23622 10.3195 4.14669 10.2864C4.05716 10.2534 3.96168 10.2395 3.86646 10.2458H3.3012ZM4.09609 10.9524C4.09531 10.9923 4.08627 11.0317 4.06955 11.068C4.05282 11.1043 4.02878 11.1367 3.99891 11.1632C3.96905 11.1898 3.93403 11.2099 3.89603 11.2222C3.85804 11.2346 3.8179 11.2389 3.77814 11.235H3.53084V10.6698H3.77814C3.81821 10.6641 3.85903 10.6673 3.89777 10.679C3.93651 10.6907 3.97224 10.7106 4.00249 10.7375C4.03273 10.7644 4.05677 10.7976 4.07293 10.8347C4.0891 10.8718 4.097 10.9119 4.09609 10.9524Z"
                        fill="#3E3E40"></path>
                    <path
                        d="M5.06755 10.2458C5.03713 10.2449 5.00683 10.2501 4.97853 10.2613C4.95022 10.2725 4.92452 10.2894 4.90299 10.3109C4.88147 10.3324 4.86459 10.3581 4.8534 10.3865C4.84221 10.4148 4.83694 10.4451 4.83792 10.4755V12.0829C4.83553 12.1137 4.83984 12.1446 4.85053 12.1735C4.86123 12.2025 4.87806 12.2288 4.89988 12.2506C4.9217 12.2724 4.94799 12.2892 4.97693 12.2999C5.00587 12.3106 5.03679 12.3149 5.06755 12.3125H5.63281C6.14507 12.3125 6.60433 11.9416 6.60433 11.2527C6.60433 10.7228 6.25105 10.2282 5.63281 10.2282H5.06755V10.2458ZM6.10974 11.288C6.10974 11.659 5.9331 11.9063 5.56215 11.9063H5.31485V10.6874H5.57981C5.9331 10.6874 6.10974 10.9347 6.10974 11.288Z"
                        fill="#3E3E40"></path>
                    <path
                        d="M7.84086 10.6875C7.89708 10.6875 7.951 10.6651 7.99075 10.6254C8.0305 10.5856 8.05283 10.5317 8.05283 10.4755C8.05283 10.4193 8.0305 10.3654 7.99075 10.3256C7.951 10.2858 7.89708 10.2635 7.84086 10.2635H7.11663C7.08621 10.2625 7.05591 10.2678 7.02761 10.279C6.9993 10.2902 6.9736 10.3071 6.95207 10.3286C6.93055 10.3501 6.91367 10.3758 6.90248 10.4041C6.89129 10.4324 6.88602 10.4627 6.887 10.4931V12.1182C6.88429 12.1499 6.88823 12.1818 6.89857 12.2118C6.90892 12.2419 6.92543 12.2695 6.94706 12.2927C6.96868 12.316 6.99494 12.3345 7.02415 12.3471C7.05335 12.3596 7.08485 12.3659 7.11663 12.3655C7.14882 12.3674 7.18101 12.3621 7.21091 12.3501C7.24081 12.338 7.26769 12.3195 7.28962 12.2959C7.31155 12.2723 7.328 12.2441 7.33779 12.2134C7.34759 12.1827 7.35048 12.1502 7.34627 12.1182V11.5177H7.77021C7.79961 11.5207 7.82931 11.5174 7.85735 11.5081C7.88539 11.4987 7.91112 11.4835 7.93283 11.4635C7.95455 11.4434 7.97176 11.419 7.98331 11.3918C7.99486 11.3646 8.0005 11.3352 7.99984 11.3057C7.99984 11.1644 7.91152 11.0937 7.77021 11.0937H7.34627V10.7228H7.84086V10.6875Z"
                        fill="#3E3E40"></path>
                    <path
                        d="M7.36392 8.58543C7.36213 8.51572 7.33364 8.44936 7.28434 8.40005C7.23503 8.35074 7.16867 8.32225 7.09896 8.32047H3.84876C3.77849 8.32047 3.7111 8.34838 3.66141 8.39807C3.61172 8.44776 3.5838 8.51515 3.5838 8.58543C3.5838 8.6557 3.61172 8.72309 3.66141 8.77278C3.7111 8.82247 3.77849 8.85039 3.84876 8.85039H7.09896C7.13395 8.85111 7.16873 8.84475 7.2012 8.83169C7.23368 8.81863 7.26318 8.79914 7.28792 8.77439C7.31267 8.74964 7.33216 8.72014 7.34522 8.68767C7.35828 8.6552 7.36464 8.62042 7.36392 8.58543Z"
                        fill="#3E3E40"></path>
                </svg>