<svg width="28" height="29" viewBox="0 0 28 29" fill="none" xmlns="http://www.w3.org/2000/svg">
<path d="M10.1172 14.15C11.0176 16.0094 12.5211 17.509 14.3828 18.4047C14.5201 18.4697 14.672 18.4978 14.8235 18.4863C14.975 18.4748 15.1209 18.4241 15.2469 18.339L17.9812 16.5125C18.1021 16.4305 18.2417 16.3805 18.387 16.3672C18.5324 16.3538 18.6788 16.3774 18.8125 16.4359L23.9313 18.6344C24.1062 18.7072 24.2524 18.8355 24.3472 18.9995C24.4421 19.1635 24.4804 19.3542 24.4563 19.5422C24.294 20.8084 23.6759 21.9722 22.7177 22.8157C21.7594 23.6592 20.5266 24.1247 19.25 24.125C15.3049 24.125 11.5214 22.5578 8.73179 19.7682C5.94218 16.9786 4.375 13.1951 4.375 9.24998C4.37529 7.97335 4.84073 6.74056 5.68425 5.7823C6.52776 4.82404 7.69154 4.20596 8.95781 4.04372C9.14576 4.01958 9.33643 4.05789 9.50047 4.15276C9.66451 4.24762 9.79281 4.39378 9.86562 4.56872L12.0641 9.69841C12.1212 9.83004 12.1451 9.97371 12.1337 10.1168C12.1223 10.2598 12.0758 10.3979 11.9984 10.5187L10.1719 13.2969C10.0906 13.4225 10.0428 13.5669 10.0333 13.7163C10.0237 13.8656 10.0526 14.015 10.1172 14.15V14.15Z" stroke="#3F3C43" stroke-width="1.5" stroke-linecap="round" stroke-linejoin="round"/>
</svg>
