<svg fill="none" height="29" viewBox="0 0 28 29" width="28" xmlns="http://www.w3.org/2000/svg"><g stroke="#3f3c43" stroke-linecap="round" stroke-linejoin="round" stroke-width="1.5"><path d="m4.96562 19.8593c-1.30279-2.198-1.75848-4.7959-1.28154-7.306.47693-2.5102 1.8537-4.75998 3.87184-6.32698 2.01814-1.56701 4.53888-2.34349 7.08888-2.18368 2.5501.15982 4.9542 1.24493 6.7609 3.05164s2.8918 4.21072 3.0516 6.76082-.6167 5.0708-2.1837 7.0889c-1.567 2.0182-3.8167 3.3949-6.3269 3.8719-2.5102.4769-5.1081.0212-7.30608-1.2816l-3.63125 1.0282c-.14878.0435-.30652.0462-.45669.0078-.15017-.0385-.28725-.1166-.39685-.2262-.10961-.1096-.18771-.2467-.22613-.3968-.03841-.1502-.03572-.3079.00779-.4567z"/><path d="m16.6359 20.625c-1.1513.0029-2.2918-.2217-3.356-.661-1.0643-.4392-2.0312-1.0845-2.8453-1.8986-.81412-.8141-1.45934-1.781-1.89859-2.8452-.43926-1.0643-.6639-2.2048-.66101-3.3561.00289-.8103.32682-1.5865.90084-2.15846.57402-.57197 1.35136-.89312 2.16166-.89312.1337-.00106.2652.03393.3807.10129.1155.06737.2107.16462.2755.28153l1.2797 2.23126c.0761.1356.1152.2889.1133.4444-.002.1555-.0448.3078-.1242.4415l-1.0281 1.7172c.5266 1.1715 1.4644 2.1093 2.6359 2.6359l1.7172-1.0281c.1337-.0794.286-.1222.4415-.1241.1555-.002.3088.0371.4444.1132l2.2313 1.2797c.1169.0649.2141.16.2815.2755s.1024.247.1013.3807c-.0029.8095-.3249 1.5851-.8963 2.1585-.5713.5734-1.3458.8983-2.1553.904z"/></g></svg>