<?xml version="1.0" encoding="UTF-8" standalone="no"?>
<svg
   viewBox="0 0 1582 799"
   width="1582"
   height="799"
   version="1.1"
   id="svg22"
   xmlns="http://www.w3.org/2000/svg"
   xmlns:svg="http://www.w3.org/2000/svg">
  <defs
     id="defs22" />
  <g
     fill="None"
     fill-opacity="0"
     stroke="#ffffff"
     stroke-opacity="0.5"
     stroke-width="0.3"
     id="g1">
    <path
       d="m 0,1 c 41.33,-0.14 82.67,0.19 124,0 41.33,-0.19 82.67,0.36 124,0 41.33,-0.36 82.67,0.77 124,0 41.33,-0.77 82.69,1.7 124,0 41.31,-1.7 83.82,3.72 125,0 0,-0.5 0,-1 0,-1 H 0 Z"
       id="path1" />
  </g>
  <g
     fill="None"
     fill-opacity="0"
     stroke="#000000"
     stroke-opacity="0"
     stroke-width="0.3"
     id="g2">
    <path
       d="m 621,1 c -0.01,265.66 -0.32,531.34 0,797 0,0.5 0,1 0,1 h 266 c 0,-0.5 0,-1 0,-1 5.43,-23.13 19.79,-43.77 27.78,-66.22 7.99,-22.46 19.37,-44.57 28.2,-66.8 8.82,-22.24 19.19,-43.73 28,-66 8.8,-22.28 19.8,-43.98 28.79,-66.21 8.99,-22.22 18.52,-43.93 28.01,-65.99 9.49,-22.07 18.62,-44.77 28.15,-66.85 9.52,-22.08 19.3,-44.39 28.39,-66.61 9.1,-22.22 19.29,-43.37 28.45,-65.55 9.16,-22.18 18.86,-44.73 28.15,-66.85 9.3,-22.11 19.17,-43.73 28.01,-65.99 8.83,-22.27 20.56,-44.02 28.38,-66.62 7.81,-22.61 22.37,-43.3 28.69,-66.31 0.13,-0.46 0,-1.5 0,-2 H 899 c 93.26,5.2 168.79,88.89 166,183 -2.79,94.11 -82.49,171.82 -177.01,172.99 C 793.48,357.17 712.75,277.31 709,185 705.25,92.68 780.33,1 875,1 c -0.04,0 0,-1 0,-1 H 621 c 0,0 0,0.5 0,1 z"
       id="path2" />
  </g>
  <g
     fill="None"
     fill-opacity="0"
     stroke="#ffffff"
     stroke-opacity="0.33"
     stroke-width="0.3"
     id="g3">
    <path
       d="m 875,1 c 7.5,0 16.33,0.83 23,-1 h -23 c 0,0 -0.04,1 0,1 z"
       id="path3" />
  </g>
  <g
     fill="None"
     fill-opacity="0"
     stroke="#ffffff"
     stroke-opacity="1"
     stroke-width="0.3"
     id="g4">
    <path
       d="M 875,1 C 780.33,1 705.25,92.68 709,185 712.75,277.31 793.48,357.17 887.99,355.99 982.51,354.82 1062.21,277.11 1065,183 1067.79,88.89 992.26,5.2 899,0 h -1 c -6.67,1.83 -15.5,1 -23,1 z"
       id="path4" />
  </g>
  <g
     fill="None"
     fill-opacity="0"
     stroke="#ffffff"
     stroke-opacity="0.5"
     stroke-width="0.3"
     id="g5">
    <path
       d="m 1226,2 c 15.9,1.85 33.37,-2.48 50,-1 16.63,1.48 34.18,-0.66 51,0 16.82,0.66 34.1,-0.28 51,0 16.9,0.28 34.08,-0.08 51,0 16.92,0.08 34.11,0.05 51,0 16.89,-0.05 34.21,0.23 51,0 16.79,-0.23 34.1,1.01 50,-1 h -355 c 0,0.5 0.13,1.54 0,2 z"
       id="path5" />
  </g>
  <g
     fill="None"
     fill-opacity="0"
     stroke="#ffffff"
     stroke-opacity="1"
     stroke-width="0.3"
     id="g6">
    <path
       d="m 1226,2 c -6.32,23.01 -20.88,43.7 -28.69,66.31 -7.82,22.6 -19.55,44.35 -28.38,66.62 -8.84,22.26 -18.71,43.88 -28.01,65.99 -9.29,22.12 -18.99,44.67 -28.15,66.85 -9.16,22.18 -19.35,43.33 -28.45,65.55 -9.09,22.22 -18.87,44.53 -28.39,66.61 -9.53,22.08 -18.66,44.78 -28.15,66.85 -9.49,22.06 -19.02,43.77 -28.01,65.99 -8.99,22.23 -19.99,43.93 -28.79,66.21 -8.81,22.27 -19.18,43.76 -28,66 -8.83,22.23 -20.21,44.34 -28.2,66.8 -7.99,22.45 -22.35,43.09 -27.78,66.22 38.93,-3.52 78.87,0.95 118,0 39.13,-0.95 78.8,-0.99 118,0 39.2,0.99 79.94,-3.53 119,0 11.18,-13.13 13.17,-33.97 21.77,-49.23 8.61,-15.26 13.18,-33.94 21.15,-49.85 7.98,-15.91 13.68,-33.65 21.01,-49.99 7.32,-16.34 14.49,-33.03 21.38,-49.62 6.88,-16.6 14.33,-32.98 21.46,-49.54 7.14,-16.56 13.51,-33.56 21.01,-49.99 7.49,-16.43 13.77,-33.37 21.14,-49.86 7.38,-16.48 14.07,-33.33 21.06,-49.94 6.98,-16.62 14.68,-32.94 21.33,-49.67 6.64,-16.74 14.74,-32.82 21.46,-49.54 6.72,-16.72 14.09,-33.26 21.15,-49.85 7.07,-16.59 13.88,-33.43 21,-50 7.13,-16.56 14.13,-33.09 21.39,-49.61 7.25,-16.53 13.89,-33.41 21.01,-49.99 7.13,-16.57 14.34,-33 21.45,-49.55 C 1567.89,35.22 1574.59,18.1 1582,2 V 0 h -1 c -15.9,2.01 -33.21,0.77 -50,1 -16.79,0.23 -34.11,-0.05 -51,0 -16.89,0.05 -34.08,0.08 -51,0 -16.92,-0.08 -34.1,0.28 -51,0 -16.9,-0.28 -34.18,0.66 -51,0 -16.82,-0.66 -34.37,1.48 -51,0 -16.63,-1.48 -34.1,2.85 -50,1 z"
       id="path6" />
  </g>
  <g
     fill="None"
     fill-opacity="0"
     stroke="#ffffff"
     stroke-opacity="1"
     stroke-width="0.3"
     id="g7">
    <path
       d="m 0,296 c 108.33,0 216.67,0 325,0 0,167.67 0,335.33 0,503 h 1 c 31.74,-1.47 64.4,-1.48 97,-1 32.6,0.48 66.3,-1.28 99,0 32.7,1.28 66.41,-2.94 99,0 C 620.68,532.34 620.99,266.66 621,1 579.82,4.72 537.31,-0.7 496,1 454.69,2.7 413.33,0.23 372,1 330.67,1.77 289.33,0.64 248,1 206.67,1.36 165.33,0.81 124,1 82.67,1.19 41.33,0.86 0,1 Z"
       id="path7" />
  </g>
  <g
     fill="None"
     fill-opacity="0"
     stroke="#000000"
     stroke-opacity="0"
     stroke-width="0.3"
     id="g8">
    <path
       d="m 1242,798 c -0.25,0.29 0,1 0,1 h 340 V 2 c -7.41,16.1 -14.11,33.22 -21.23,49.77 -7.11,16.55 -14.32,32.98 -21.45,49.55 -7.12,16.58 -13.76,33.46 -21.01,49.99 -7.26,16.52 -14.26,33.05 -21.39,49.61 -7.12,16.57 -13.93,33.41 -21,50 -7.06,16.59 -14.43,33.13 -21.15,49.85 -6.72,16.72 -14.82,32.8 -21.46,49.54 -6.65,16.73 -14.35,33.05 -21.33,49.67 -6.99,16.61 -13.68,33.46 -21.06,49.94 -7.37,16.49 -13.65,33.43 -21.14,49.86 -7.5,16.43 -13.87,33.43 -21.01,49.99 -7.13,16.56 -14.58,32.94 -21.46,49.54 -6.89,16.59 -14.06,33.28 -21.38,49.62 -7.33,16.34 -13.03,34.08 -21.01,49.99 -7.97,15.91 -12.54,34.59 -21.15,49.85 -8.6,15.26 -10.59,36.1 -21.77,49.23 z"
       id="path8" />
  </g>
  <g
     fill="None"
     fill-opacity="0"
     stroke="#000000"
     stroke-opacity="0"
     stroke-width="0.3"
     id="g9">
    <path
       d="m 0,799 h 325 c 0,-167.67 0,-335.33 0,-503 -108.33,0 -216.67,0 -325,0 z"
       id="path9" />
  </g>
  <g
     fill="None"
     fill-opacity="0"
     stroke="#ffffff"
     stroke-opacity="0.5"
     stroke-width="0.3"
     id="g10">
    <path
       d="m 326,799 h 295 c 0,0 0,-0.5 0,-1 -32.59,-2.94 -66.3,1.28 -99,0 -32.7,-1.28 -66.4,0.48 -99,0 -32.6,-0.48 -65.26,-0.47 -97,1 z"
       id="path10" />
  </g>
  <g
     fill="None"
     fill-opacity="0"
     stroke="#ffffff"
     stroke-opacity="0.5"
     stroke-width="0.3"
     id="g11">
    <path
       d="m 887,799 h 355 c 0,0 -0.25,-0.71 0,-1 -39.06,-3.53 -79.8,0.99 -119,0 -39.2,-0.99 -78.87,-0.95 -118,0 -39.13,0.95 -79.07,-3.52 -118,0 0,0 0,0.5 0,1 z"
       id="path11" />
  </g>
  <g
     fill="#ffffff"
     fill-opacity="0.5"
     stroke="None"
     id="g12">
    <path
       d="m 0,1 c 41.33,-0.14 82.67,0.19 124,0 41.33,-0.19 82.67,0.36 124,0 41.33,-0.36 82.67,0.77 124,0 41.33,-0.77 82.69,1.7 124,0 41.31,-1.7 83.82,3.72 125,0 0,-0.5 0,-1 0,-1 H 0 Z"
       id="path12" />
  </g>
  <g
     fill="#000000"
     fill-opacity="0"
     stroke="None"
     id="g13">
    <path
       d="m 621,1 c -0.01,265.66 -0.32,531.34 0,797 0,0.5 0,1 0,1 h 266 c 0,-0.5 0,-1 0,-1 5.43,-23.13 19.79,-43.77 27.78,-66.22 7.99,-22.46 19.37,-44.57 28.2,-66.8 8.82,-22.24 19.19,-43.73 28,-66 8.8,-22.28 19.8,-43.98 28.79,-66.21 8.99,-22.22 18.52,-43.93 28.01,-65.99 9.49,-22.07 18.62,-44.77 28.15,-66.85 9.52,-22.08 19.3,-44.39 28.39,-66.61 9.1,-22.22 19.29,-43.37 28.45,-65.55 9.16,-22.18 18.86,-44.73 28.15,-66.85 9.3,-22.11 19.17,-43.73 28.01,-65.99 8.83,-22.27 20.56,-44.02 28.38,-66.62 7.81,-22.61 22.37,-43.3 28.69,-66.31 0.13,-0.46 0,-1.5 0,-2 H 899 c 93.26,5.2 168.79,88.89 166,183 -2.79,94.11 -82.49,171.82 -177.01,172.99 C 793.48,357.17 712.75,277.31 709,185 705.25,92.68 780.33,1 875,1 c -0.04,0 0,-1 0,-1 H 621 c 0,0 0,0.5 0,1 z"
       id="path13" />
  </g>
  <g
     fill="#ffffff"
     fill-opacity="0.33"
     stroke="None"
     id="g14">
    <path
       d="m 875,1 c 7.5,0 16.33,0.83 23,-1 h -23 c 0,0 -0.04,1 0,1 z"
       id="path14" />
  </g>
  <g
     fill="#ffffff"
     fill-opacity="1"
     stroke="None"
     id="g15">
    <path
       d="M 875,1 C 780.33,1 705.25,92.68 709,185 712.75,277.31 793.48,357.17 887.99,355.99 982.51,354.82 1062.21,277.11 1065,183 1067.79,88.89 992.26,5.2 899,0 h -1 c -6.67,1.83 -15.5,1 -23,1 z"
       id="path15" />
  </g>
  <g
     fill="#ffffff"
     fill-opacity="0.5"
     stroke="None"
     id="g16">
    <path
       d="m 1226,2 c 15.9,1.85 33.37,-2.48 50,-1 16.63,1.48 34.18,-0.66 51,0 16.82,0.66 34.1,-0.28 51,0 16.9,0.28 34.08,-0.08 51,0 16.92,0.08 34.11,0.05 51,0 16.89,-0.05 34.21,0.23 51,0 16.79,-0.23 34.1,1.01 50,-1 h -355 c 0,0.5 0.13,1.54 0,2 z"
       id="path16" />
  </g>
  <g
     fill="#ffffff"
     fill-opacity="1"
     stroke="None"
     id="g17">
    <path
       d="m 1226,2 c -6.32,23.01 -20.88,43.7 -28.69,66.31 -7.82,22.6 -19.55,44.35 -28.38,66.62 -8.84,22.26 -18.71,43.88 -28.01,65.99 -9.29,22.12 -18.99,44.67 -28.15,66.85 -9.16,22.18 -19.35,43.33 -28.45,65.55 -9.09,22.22 -18.87,44.53 -28.39,66.61 -9.53,22.08 -18.66,44.78 -28.15,66.85 -9.49,22.06 -19.02,43.77 -28.01,65.99 -8.99,22.23 -19.99,43.93 -28.79,66.21 -8.81,22.27 -19.18,43.76 -28,66 -8.83,22.23 -20.21,44.34 -28.2,66.8 -7.99,22.45 -22.35,43.09 -27.78,66.22 38.93,-3.52 78.87,0.95 118,0 39.13,-0.95 78.8,-0.99 118,0 39.2,0.99 79.94,-3.53 119,0 11.18,-13.13 13.17,-33.97 21.77,-49.23 8.61,-15.26 13.18,-33.94 21.15,-49.85 7.98,-15.91 13.68,-33.65 21.01,-49.99 7.32,-16.34 14.49,-33.03 21.38,-49.62 6.88,-16.6 14.33,-32.98 21.46,-49.54 7.14,-16.56 13.51,-33.56 21.01,-49.99 7.49,-16.43 13.77,-33.37 21.14,-49.86 7.38,-16.48 14.07,-33.33 21.06,-49.94 6.98,-16.62 14.68,-32.94 21.33,-49.67 6.64,-16.74 14.74,-32.82 21.46,-49.54 6.72,-16.72 14.09,-33.26 21.15,-49.85 7.07,-16.59 13.88,-33.43 21,-50 7.13,-16.56 14.13,-33.09 21.39,-49.61 7.25,-16.53 13.89,-33.41 21.01,-49.99 7.13,-16.57 14.34,-33 21.45,-49.55 C 1567.89,35.22 1574.59,18.1 1582,2 V 0 h -1 c -15.9,2.01 -33.21,0.77 -50,1 -16.79,0.23 -34.11,-0.05 -51,0 -16.89,0.05 -34.08,0.08 -51,0 -16.92,-0.08 -34.1,0.28 -51,0 -16.9,-0.28 -34.18,0.66 -51,0 -16.82,-0.66 -34.37,1.48 -51,0 -16.63,-1.48 -34.1,2.85 -50,1 z"
       id="path17" />
  </g>
  <g
     fill="#ffffff"
     fill-opacity="1"
     stroke="None"
     id="g18">
    <path
       d="m 0,296 c 108.33,0 216.67,0 325,0 0,167.67 0,335.33 0,503 h 1 c 31.74,-1.47 64.4,-1.48 97,-1 32.6,0.48 66.3,-1.28 99,0 32.7,1.28 66.41,-2.94 99,0 C 620.68,532.34 620.99,266.66 621,1 579.82,4.72 537.31,-0.7 496,1 454.69,2.7 413.33,0.23 372,1 330.67,1.77 289.33,0.64 248,1 206.67,1.36 165.33,0.81 124,1 82.67,1.19 41.33,0.86 0,1 Z"
       id="path18" />
  </g>
  <g
     fill="#000000"
     fill-opacity="0"
     stroke="None"
     id="g19">
    <path
       d="m 1242,798 c -0.25,0.29 0,1 0,1 h 340 V 2 c -7.41,16.1 -14.11,33.22 -21.23,49.77 -7.11,16.55 -14.32,32.98 -21.45,49.55 -7.12,16.58 -13.76,33.46 -21.01,49.99 -7.26,16.52 -14.26,33.05 -21.39,49.61 -7.12,16.57 -13.93,33.41 -21,50 -7.06,16.59 -14.43,33.13 -21.15,49.85 -6.72,16.72 -14.82,32.8 -21.46,49.54 -6.65,16.73 -14.35,33.05 -21.33,49.67 -6.99,16.61 -13.68,33.46 -21.06,49.94 -7.37,16.49 -13.65,33.43 -21.14,49.86 -7.5,16.43 -13.87,33.43 -21.01,49.99 -7.13,16.56 -14.58,32.94 -21.46,49.54 -6.89,16.59 -14.06,33.28 -21.38,49.62 -7.33,16.34 -13.03,34.08 -21.01,49.99 -7.97,15.91 -12.54,34.59 -21.15,49.85 -8.6,15.26 -10.59,36.1 -21.77,49.23 z"
       id="path19" />
  </g>
  <g
     fill="#000000"
     fill-opacity="0"
     stroke="None"
     id="g20">
    <path
       d="m 0,799 h 325 c 0,-167.67 0,-335.33 0,-503 -108.33,0 -216.67,0 -325,0 z"
       id="path20" />
  </g>
  <g
     fill="#ffffff"
     fill-opacity="0.5"
     stroke="None"
     id="g21">
    <path
       d="m 326,799 h 295 c 0,0 0,-0.5 0,-1 -32.59,-2.94 -66.3,1.28 -99,0 -32.7,-1.28 -66.4,0.48 -99,0 -32.6,-0.48 -65.26,-0.47 -97,1 z"
       id="path21" />
  </g>
  <g
     fill="#ffffff"
     fill-opacity="0.5"
     stroke="None"
     id="g22">
    <path
       d="m 887,799 h 355 c 0,0 -0.25,-0.71 0,-1 -39.06,-3.53 -79.8,0.99 -119,0 -39.2,-0.99 -78.87,-0.95 -118,0 -39.13,0.95 -79.07,-3.52 -118,0 0,0 0,0.5 0,1 z"
       id="path22" />
  </g>
</svg>
