<?xml version="1.0" encoding="UTF-8" standalone="no"?>
<svg
   viewBox="0 0 473 438"
   width="473"
   height="438"
   version="1.1"
   id="svg32"
   sodipodi:docname="vantage.svg"
   inkscape:version="1.3.2 (091e20e, 2023-11-25)"
   xmlns:inkscape="http://www.inkscape.org/namespaces/inkscape"
   xmlns:sodipodi="http://sodipodi.sourceforge.net/DTD/sodipodi-0.dtd"
   xmlns="http://www.w3.org/2000/svg"
   xmlns:svg="http://www.w3.org/2000/svg">
  <defs
     id="defs32" />
  <sodipodi:namedview
     id="namedview32"
     pagecolor="#ffffff"
     bordercolor="#000000"
     borderopacity="0.25"
     inkscape:showpageshadow="2"
     inkscape:pageopacity="0.0"
     inkscape:pagecheckerboard="0"
     inkscape:deskcolor="#d1d1d1"
     inkscape:zoom="1.7251586"
     inkscape:cx="236.5"
     inkscape:cy="219.11029"
     inkscape:window-width="1392"
     inkscape:window-height="1027"
     inkscape:window-x="0"
     inkscape:window-y="25"
     inkscape:window-maximized="0"
     inkscape:current-layer="svg32" />
  <g
     fill="None"
     fill-opacity="0.0"
     stroke="#000000"
     stroke-opacity="0.00"
     stroke-width="0.3"
     id="g1">
    <path
       d=" M 0.00 1.00  C 2.19 0.48 5.62 2.14 7.00 0.00 L 0.00 0.00 L 0.00 1.00 Z"
       id="path1" />
  </g>
  <g
     fill="None"
     fill-opacity="0.0"
     stroke="#F8EC9B"
     stroke-opacity="0.99"
     stroke-width="0.3"
     id="g2">
    <path
       d=" M 0.00 1.00  L 0.00 3.00 C 78.10 147.89 157.09 292.97 235.00 438.00 L 237.00 438.00 C 246.77 421.93 254.60 406.02 263.31 389.31 C 272.01 372.59 281.69 357.37 290.30 340.30 C 298.92 323.24 280.35 305.15 273.08 288.92 C 265.80 272.70 254.83 256.60 246.69 240.31 C 238.56 224.01 228.43 207.35 220.08 190.92 C 211.73 174.50 201.57 158.25 193.23 141.77 C 184.89 125.29 176.10 108.96 167.08 92.92 C 158.05 76.89 149.98 59.22 140.23 43.77 C 130.48 28.32 126.43 5.18 108.00 0.00 L 106.00 0.00 C 102.56 1.99 97.20 0.71 93.00 1.00 C 81.40 1.79 68.18 2.99 57.00 1.00 C 55.71 0.77 53.51 1.72 53.00 0.00 L 52.00 0.00 C 42.74 1.65 30.19 1.68 21.00 0.00 L 20.00 0.00 C 17.06 1.57 10.87 1.71 8.00 0.00 L 7.00 0.00 C 5.62 2.14 2.19 0.48 0.00 1.00 Z"
       id="path2" />
  </g>
  <g
     fill="None"
     fill-opacity="0.0"
     stroke="#000000"
     stroke-opacity="0.00"
     stroke-width="0.3"
     id="g3">
    <path
       d=" M 20.00 0.00  L 8.00 0.00 C 10.87 1.71 17.06 1.57 20.00 0.00 Z"
       id="path3" />
  </g>
  <g
     fill="None"
     fill-opacity="0.0"
     stroke="#000000"
     stroke-opacity="0.00"
     stroke-width="0.3"
     id="g4">
    <path
       d=" M 52.00 0.00  L 21.00 0.00 C 30.19 1.68 42.74 1.65 52.00 0.00 Z"
       id="path4" />
  </g>
  <g
     fill="None"
     fill-opacity="0.0"
     stroke="#000000"
     stroke-opacity="0.00"
     stroke-width="0.3"
     id="g5">
    <path
       d=" M 57.00 1.00  C 58.56 1.04 61.23 1.64 62.00 0.00 L 53.00 0.00 C 53.51 1.72 55.71 0.77 57.00 1.00 Z"
       id="path5" />
  </g>
  <g
     fill="None"
     fill-opacity="0.0"
     stroke="#F8EB9A"
     stroke-opacity="0.70"
     stroke-width="0.3"
     id="g6">
    <path
       d=" M 57.00 1.00  C 68.18 2.99 81.40 1.79 93.00 1.00 C 93.06 0.99 93.00 0.00 93.00 0.00 L 88.00 0.00 C 85.06 1.57 78.87 1.71 76.00 0.00 L 75.00 0.00 C 72.06 1.57 65.87 1.71 63.00 0.00 L 62.00 0.00 C 61.23 1.64 58.56 1.04 57.00 1.00 Z"
       id="path6" />
  </g>
  <g
     fill="None"
     fill-opacity="0.0"
     stroke="#000000"
     stroke-opacity="0.00"
     stroke-width="0.3"
     id="g7">
    <path
       d=" M 75.00 0.00  L 63.00 0.00 C 65.87 1.71 72.06 1.57 75.00 0.00 Z"
       id="path7" />
  </g>
  <g
     fill="None"
     fill-opacity="0.0"
     stroke="#000000"
     stroke-opacity="0.00"
     stroke-width="0.3"
     id="g8">
    <path
       d=" M 88.00 0.00  L 76.00 0.00 C 78.87 1.71 85.06 1.57 88.00 0.00 Z"
       id="path8" />
  </g>
  <g
     fill="None"
     fill-opacity="0.0"
     stroke="#F7EB9A"
     stroke-opacity="0.44"
     stroke-width="0.3"
     id="g9">
    <path
       d=" M 93.00 1.00  C 97.20 0.71 102.56 1.99 106.00 0.00 L 93.00 0.00 C 93.00 0.00 93.06 0.99 93.00 1.00 Z"
       id="path9" />
  </g>
  <g
     fill="None"
     fill-opacity="0.0"
     stroke="#000000"
     stroke-opacity="0.00"
     stroke-width="0.3"
     id="g10">
    <path
       d=" M 237.00 438.00  L 473.00 438.00 L 473.00 3.00 C 472.67 3.17 472.21 3.70 472.00 4.00 C 451.43 33.19 439.02 68.04 420.69 98.69 C 402.37 129.35 387.04 162.19 369.25 193.25 C 351.45 224.30 335.37 256.82 318.00 288.00 C 316.78 260.32 315.94 232.01 316.98 203.98 C 318.01 175.94 313.69 144.89 316.00 117.00 C 318.31 89.11 291.63 83.69 272.92 71.08 C 254.21 58.48 236.20 48.56 217.75 36.25 C 199.31 23.93 179.90 14.67 162.00 2.00 C 171.69 0.51 181.95 1.09 192.00 1.00 C 208.00 1.00 224.00 1.00 240.00 1.00 C 239.75 0.75 240.00 0.00 240.00 0.00 L 108.00 0.00 C 126.43 5.18 130.48 28.32 140.23 43.77 C 149.98 59.22 158.05 76.89 167.08 92.92 C 176.10 108.96 184.89 125.29 193.23 141.77 C 201.57 158.25 211.73 174.50 220.08 190.92 C 228.43 207.35 238.56 224.01 246.69 240.31 C 254.83 256.60 265.80 272.70 273.08 288.92 C 280.35 305.15 298.92 323.24 290.30 340.30 C 281.69 357.37 272.01 372.59 263.31 389.31 C 254.60 406.02 246.77 421.93 237.00 438.00 Z"
       id="path10" />
  </g>
  <g
     fill="None"
     fill-opacity="0.0"
     stroke="#F9ED9A"
     stroke-opacity="0.07"
     stroke-width="0.3"
     id="g11">
    <path
       d=" M 240.00 1.00  C 240.50 1.00 241.00 1.00 241.00 1.00 C 269.33 1.00 297.67 1.00 326.00 1.00 C 326.50 1.00 327.00 1.00 327.00 1.00 C 327.25 0.75 327.00 0.00 327.00 0.00 L 240.00 0.00 C 240.00 0.00 239.75 0.75 240.00 1.00 Z"
       id="path11" />
  </g>
  <g
     fill="None"
     fill-opacity="0.0"
     stroke="#000000"
     stroke-opacity="0.00"
     stroke-width="0.3"
     id="g12">
    <path
       d=" M 327.00 1.00  C 375.67 1.00 424.33 1.00 473.00 1.00 L 473.00 0.00 L 327.00 0.00 C 327.00 0.00 327.25 0.75 327.00 1.00 Z"
       id="path12" />
  </g>
  <g
     fill="None"
     fill-opacity="0.0"
     stroke="#F8EC9B"
     stroke-opacity="0.98"
     stroke-width="0.3"
     id="g13">
    <path
       d=" M 472.00 4.00  C 463.38 -2.07 448.27 3.38 437.00 2.00 C 425.73 0.62 411.83 2.54 400.00 2.00 C 388.17 1.46 375.07 2.06 363.00 2.00 C 350.93 1.94 337.34 2.10 326.00 1.00 C 297.67 1.00 269.33 1.00 241.00 1.00 C 225.62 2.49 207.31 2.48 192.00 1.00 C 181.95 1.09 171.69 0.51 162.00 2.00 C 179.90 14.67 199.31 23.93 217.75 36.25 C 236.20 48.56 254.21 58.48 272.92 71.08 C 291.63 83.69 318.31 89.11 316.00 117.00 C 313.69 144.89 318.01 175.94 316.98 203.98 C 315.94 232.01 316.78 260.32 318.00 288.00 C 335.37 256.82 351.45 224.30 369.25 193.25 C 387.04 162.19 402.37 129.35 420.69 98.69 C 439.02 68.04 451.43 33.19 472.00 4.00 Z"
       id="path13" />
  </g>
  <g
     fill="None"
     fill-opacity="0.0"
     stroke="#F8EB9A"
     stroke-opacity="0.46"
     stroke-width="0.3"
     id="g14">
    <path
       d=" M 241.00 1.00  C 241.00 1.00 240.50 1.00 240.00 1.00 C 224.00 1.00 208.00 1.00 192.00 1.00 C 207.31 2.48 225.62 2.49 241.00 1.00 Z"
       id="path14" />
  </g>
  <g
     fill="None"
     fill-opacity="0.0"
     stroke="#F7EB9A"
     stroke-opacity="0.46"
     stroke-width="0.3"
     id="g15">
    <path
       d=" M 472.00 4.00  C 472.21 3.70 472.67 3.17 473.00 3.00 L 473.00 1.00 C 424.33 1.00 375.67 1.00 327.00 1.00 C 327.00 1.00 326.50 1.00 326.00 1.00 C 337.34 2.10 350.93 1.94 363.00 2.00 C 375.07 2.06 388.17 1.46 400.00 2.00 C 411.83 2.54 425.73 0.62 437.00 2.00 C 448.27 3.38 463.38 -2.07 472.00 4.00 Z"
       id="path15" />
  </g>
  <g
     fill="None"
     fill-opacity="0.0"
     stroke="#000000"
     stroke-opacity="0.00"
     stroke-width="0.3"
     id="g16">
    <path
       d=" M 0.00 438.00  L 235.00 438.00 C 157.09 292.97 78.10 147.89 0.00 3.00 L 0.00 438.00 Z"
       id="path16" />
  </g>
  <g
     fill="#000000"
     fill-opacity="0.00"
     stroke="None"
     id="g17">
    <path
       d=" M 0.00 1.00  C 2.19 0.48 5.62 2.14 7.00 0.00 L 0.00 0.00 L 0.00 1.00 Z"
       id="path17" />
  </g>
  <g
     fill="#F8EC9B"
     fill-opacity="0.99"
     stroke="None"
     id="g18"
     style="fill:#fffffd;fill-opacity:0.99000001">
    <path
       d=" M 0.00 1.00  L 0.00 3.00 C 78.10 147.89 157.09 292.97 235.00 438.00 L 237.00 438.00 C 246.77 421.93 254.60 406.02 263.31 389.31 C 272.01 372.59 281.69 357.37 290.30 340.30 C 298.92 323.24 280.35 305.15 273.08 288.92 C 265.80 272.70 254.83 256.60 246.69 240.31 C 238.56 224.01 228.43 207.35 220.08 190.92 C 211.73 174.50 201.57 158.25 193.23 141.77 C 184.89 125.29 176.10 108.96 167.08 92.92 C 158.05 76.89 149.98 59.22 140.23 43.77 C 130.48 28.32 126.43 5.18 108.00 0.00 L 106.00 0.00 C 102.56 1.99 97.20 0.71 93.00 1.00 C 81.40 1.79 68.18 2.99 57.00 1.00 C 55.71 0.77 53.51 1.72 53.00 0.00 L 52.00 0.00 C 42.74 1.65 30.19 1.68 21.00 0.00 L 20.00 0.00 C 17.06 1.57 10.87 1.71 8.00 0.00 L 7.00 0.00 C 5.62 2.14 2.19 0.48 0.00 1.00 Z"
       id="path18"
       style="fill:#fffffd;fill-opacity:0.99000001" />
  </g>
  <g
     fill="#000000"
     fill-opacity="0.00"
     stroke="None"
     id="g19">
    <path
       d=" M 20.00 0.00  L 8.00 0.00 C 10.87 1.71 17.06 1.57 20.00 0.00 Z"
       id="path19" />
  </g>
  <g
     fill="#000000"
     fill-opacity="0.00"
     stroke="None"
     id="g20">
    <path
       d=" M 52.00 0.00  L 21.00 0.00 C 30.19 1.68 42.74 1.65 52.00 0.00 Z"
       id="path20" />
  </g>
  <g
     fill="#000000"
     fill-opacity="0.00"
     stroke="None"
     id="g21">
    <path
       d=" M 57.00 1.00  C 58.56 1.04 61.23 1.64 62.00 0.00 L 53.00 0.00 C 53.51 1.72 55.71 0.77 57.00 1.00 Z"
       id="path21" />
  </g>
  <g
     fill="#F8EB9A"
     fill-opacity="0.70"
     stroke="None"
     id="g22">
    <path
       d=" M 57.00 1.00  C 68.18 2.99 81.40 1.79 93.00 1.00 C 93.06 0.99 93.00 0.00 93.00 0.00 L 88.00 0.00 C 85.06 1.57 78.87 1.71 76.00 0.00 L 75.00 0.00 C 72.06 1.57 65.87 1.71 63.00 0.00 L 62.00 0.00 C 61.23 1.64 58.56 1.04 57.00 1.00 Z"
       id="path22" />
  </g>
  <g
     fill="#000000"
     fill-opacity="0.00"
     stroke="None"
     id="g23">
    <path
       d=" M 75.00 0.00  L 63.00 0.00 C 65.87 1.71 72.06 1.57 75.00 0.00 Z"
       id="path23" />
  </g>
  <g
     fill="#000000"
     fill-opacity="0.00"
     stroke="None"
     id="g24">
    <path
       d=" M 88.00 0.00  L 76.00 0.00 C 78.87 1.71 85.06 1.57 88.00 0.00 Z"
       id="path24" />
  </g>
  <g
     fill="#F7EB9A"
     fill-opacity="0.44"
     stroke="None"
     id="g25">
    <path
       d=" M 93.00 1.00  C 97.20 0.71 102.56 1.99 106.00 0.00 L 93.00 0.00 C 93.00 0.00 93.06 0.99 93.00 1.00 Z"
       id="path25" />
  </g>
  <g
     fill="#000000"
     fill-opacity="0.00"
     stroke="None"
     id="g26">
    <path
       d=" M 237.00 438.00  L 473.00 438.00 L 473.00 3.00 C 472.67 3.17 472.21 3.70 472.00 4.00 C 451.43 33.19 439.02 68.04 420.69 98.69 C 402.37 129.35 387.04 162.19 369.25 193.25 C 351.45 224.30 335.37 256.82 318.00 288.00 C 316.78 260.32 315.94 232.01 316.98 203.98 C 318.01 175.94 313.69 144.89 316.00 117.00 C 318.31 89.11 291.63 83.69 272.92 71.08 C 254.21 58.48 236.20 48.56 217.75 36.25 C 199.31 23.93 179.90 14.67 162.00 2.00 C 171.69 0.51 181.95 1.09 192.00 1.00 C 208.00 1.00 224.00 1.00 240.00 1.00 C 239.75 0.75 240.00 0.00 240.00 0.00 L 108.00 0.00 C 126.43 5.18 130.48 28.32 140.23 43.77 C 149.98 59.22 158.05 76.89 167.08 92.92 C 176.10 108.96 184.89 125.29 193.23 141.77 C 201.57 158.25 211.73 174.50 220.08 190.92 C 228.43 207.35 238.56 224.01 246.69 240.31 C 254.83 256.60 265.80 272.70 273.08 288.92 C 280.35 305.15 298.92 323.24 290.30 340.30 C 281.69 357.37 272.01 372.59 263.31 389.31 C 254.60 406.02 246.77 421.93 237.00 438.00 Z"
       id="path26" />
  </g>
  <g
     fill="#F9ED9A"
     fill-opacity="0.07"
     stroke="None"
     id="g27">
    <path
       d=" M 240.00 1.00  C 240.50 1.00 241.00 1.00 241.00 1.00 C 269.33 1.00 297.67 1.00 326.00 1.00 C 326.50 1.00 327.00 1.00 327.00 1.00 C 327.25 0.75 327.00 0.00 327.00 0.00 L 240.00 0.00 C 240.00 0.00 239.75 0.75 240.00 1.00 Z"
       id="path27" />
  </g>
  <g
     fill="#000000"
     fill-opacity="0.00"
     stroke="None"
     id="g28">
    <path
       d=" M 327.00 1.00  C 375.67 1.00 424.33 1.00 473.00 1.00 L 473.00 0.00 L 327.00 0.00 C 327.00 0.00 327.25 0.75 327.00 1.00 Z"
       id="path28" />
  </g>
  <g
     fill="#F8EC9B"
     fill-opacity="0.98"
     stroke="None"
     id="g29"
     style="fill:#ffffff;fill-opacity:0.98000002">
    <path
       d=" M 472.00 4.00  C 463.38 -2.07 448.27 3.38 437.00 2.00 C 425.73 0.62 411.83 2.54 400.00 2.00 C 388.17 1.46 375.07 2.06 363.00 2.00 C 350.93 1.94 337.34 2.10 326.00 1.00 C 297.67 1.00 269.33 1.00 241.00 1.00 C 225.62 2.49 207.31 2.48 192.00 1.00 C 181.95 1.09 171.69 0.51 162.00 2.00 C 179.90 14.67 199.31 23.93 217.75 36.25 C 236.20 48.56 254.21 58.48 272.92 71.08 C 291.63 83.69 318.31 89.11 316.00 117.00 C 313.69 144.89 318.01 175.94 316.98 203.98 C 315.94 232.01 316.78 260.32 318.00 288.00 C 335.37 256.82 351.45 224.30 369.25 193.25 C 387.04 162.19 402.37 129.35 420.69 98.69 C 439.02 68.04 451.43 33.19 472.00 4.00 Z"
       id="path29"
       style="fill:#ffffff;fill-opacity:0.98000002" />
  </g>
  <g
     fill="#F8EB9A"
     fill-opacity="0.46"
     stroke="None"
     id="g30">
    <path
       d=" M 241.00 1.00  C 241.00 1.00 240.50 1.00 240.00 1.00 C 224.00 1.00 208.00 1.00 192.00 1.00 C 207.31 2.48 225.62 2.49 241.00 1.00 Z"
       id="path30" />
  </g>
  <g
     fill="#F7EB9A"
     fill-opacity="0.46"
     stroke="None"
     id="g31">
    <path
       d=" M 472.00 4.00  C 472.21 3.70 472.67 3.17 473.00 3.00 L 473.00 1.00 C 424.33 1.00 375.67 1.00 327.00 1.00 C 327.00 1.00 326.50 1.00 326.00 1.00 C 337.34 2.10 350.93 1.94 363.00 2.00 C 375.07 2.06 388.17 1.46 400.00 2.00 C 411.83 2.54 425.73 0.62 437.00 2.00 C 448.27 3.38 463.38 -2.07 472.00 4.00 Z"
       id="path31" />
  </g>
  <g
     fill="#000000"
     fill-opacity="0.00"
     stroke="None"
     id="g32">
    <path
       d=" M 0.00 438.00  L 235.00 438.00 C 157.09 292.97 78.10 147.89 0.00 3.00 L 0.00 438.00 Z"
       id="path32" />
  </g>
</svg>
