<svg width="2rem" height="2rem" viewBox="0 0 13 15" fill="currentColor">
                    <mask id="a" maskUnits="userSpaceOnUse" x="-.682" y="-.004" width="14" height="15" fill="#000">
                        <path fill="#fff" d="M-.682-.004h14v15h-14z"></path>
                        <path
                            d="M9.925 9.596a2.299 2.299 0 0 0-1.779.821l-3.323-1.72c.158-.322.238-.677.235-1.036a2.596 2.596 0 0 0-.235-1.036l3.323-1.72a2.328 2.328 0 0 0 1.779.82 2.365 2.365 0 1 0 0-4.73A2.406 2.406 0 0 0 7.716 4.26L4.335 6a2.334 2.334 0 0 0-1.662-.685 2.365 2.365 0 0 0 .02 4.73 2.334 2.334 0 0 0 1.661-.683l3.382 1.74a2.488 2.488 0 0 0-.157.86 2.365 2.365 0 1 0 2.346-2.366Zm0-7.76A1.583 1.583 0 1 1 8.342 3.4a1.563 1.563 0 0 1 1.583-1.564ZM2.693 9.264a1.583 1.583 0 1 1 0-3.167 1.583 1.583 0 0 1 0 3.167Zm7.232 4.26a1.584 1.584 0 1 1 1.583-1.582 1.589 1.589 0 0 1-1.583 1.583Z">
                        </path>
                    </mask>
                    <path
                        d="M9.925 9.596a2.299 2.299 0 0 0-1.779.821l-3.323-1.72c.158-.322.238-.677.235-1.036a2.596 2.596 0 0 0-.235-1.036l3.323-1.72a2.328 2.328 0 0 0 1.779.82 2.365 2.365 0 1 0 0-4.73A2.406 2.406 0 0 0 7.716 4.26L4.335 6a2.334 2.334 0 0 0-1.662-.685 2.365 2.365 0 0 0 .02 4.73 2.334 2.334 0 0 0 1.661-.683l3.382 1.74a2.488 2.488 0 0 0-.157.86 2.365 2.365 0 1 0 2.346-2.366Zm0-7.76A1.583 1.583 0 1 1 8.342 3.4a1.563 1.563 0 0 1 1.583-1.564ZM2.693 9.264a1.583 1.583 0 1 1 0-3.167 1.583 1.583 0 0 1 0 3.167Zm7.232 4.26a1.584 1.584 0 1 1 1.583-1.582 1.589 1.589 0 0 1-1.583 1.583Z"
                        fill="#3E3E40"></path>
                    <path
                        d="M9.925 9.596a2.299 2.299 0 0 0-1.779.821l-3.323-1.72c.158-.322.238-.677.235-1.036a2.596 2.596 0 0 0-.235-1.036l3.323-1.72a2.328 2.328 0 0 0 1.779.82 2.365 2.365 0 1 0 0-4.73A2.406 2.406 0 0 0 7.716 4.26L4.335 6a2.334 2.334 0 0 0-1.662-.685 2.365 2.365 0 0 0 .02 4.73 2.334 2.334 0 0 0 1.661-.683l3.382 1.74a2.488 2.488 0 0 0-.157.86 2.365 2.365 0 1 0 2.346-2.366Zm0-7.76A1.583 1.583 0 1 1 8.342 3.4a1.563 1.563 0 0 1 1.583-1.564ZM2.693 9.264a1.583 1.583 0 1 1 0-3.167 1.583 1.583 0 0 1 0 3.167Zm7.232 4.26a1.584 1.584 0 1 1 1.583-1.582 1.589 1.589 0 0 1-1.583 1.583Z"
                        stroke="#3E3E40" stroke-width=".333" mask="url(#a)"></path>
                </svg>