<?xml version="1.0" encoding="utf-8"?>
<!-- Generator: Adobe Illustrator 25.2.0, SVG Export Plug-In . SVG Version: 6.00 Build 0)  -->
<svg version="1.1" id="Layer_1" xmlns="http://www.w3.org/2000/svg" xmlns:xlink="http://www.w3.org/1999/xlink" x="0px" y="0px"
	 viewBox="0 0 2000 2000" style="enable-background:new 0 0 2000 2000;" xml:space="preserve">
<style type="text/css">
	.st0{fill:url(#SVGID_1_);}
	.st1{fill:url(#SVGID_2_);}
	.st2{fill:#FF0000;}
	.st3{fill:#060459;}
</style>
<linearGradient id="SVGID_1_" gradientUnits="userSpaceOnUse" x1="0" y1="1000" x2="2000" y2="1000">
	<stop  offset="0" style="stop-color:#FFFFFF"/>
	<stop  offset="1" style="stop-color:#E6E6E6"/>
</linearGradient>
<rect class="st0" width="2000" height="2000"/>
<g>
	<g>
		<g>
			<polygon class="st3" points="699.63,1039.8 727.33,1039.8 727.33,967.96 770.9,967.34 771.32,943.17 727.33,943.38 
				727.33,910.44 773.39,909.82 773.39,885.65 699.63,885.85 			"/>
			<path class="st3" d="M826.09,1039.8h29.77l9.18-19.97h79.98l10.22,19.97h29.41l-79.41-160.59L826.09,1039.8z M875.05,995.66
				l30.19-58.97l28.11,58.97H875.05z"/>
			<polygon class="st3" points="1127.14,969 1038.8,880.67 1038.8,1041.51 1068.78,1041.51 1068.78,953.13 1157.95,1042.34 
				1157.95,883.99 1127.14,883.99 			"/>
			<polygon class="st3" points="1219.41,909.82 1251.31,910.44 1251.31,1039.8 1278.38,1039.8 1278.38,910.44 1309.4,909.82 
				1309.4,885.65 1220.24,885.65 			"/>
			<path class="st3" d="M1362.98,1039.8h29.77l9.18-19.97h79.98l10.22,19.97h29.36l-79.36-160.59L1362.98,1039.8z M1411.95,995.66
				l30.19-58.97l28.11,58.97H1411.95z"/>
			<rect x="1576.53" y="885.85" class="st3" width="27.28" height="153.95"/>
			<polygon class="st3" points="1696.5,1015.21 1696.5,885.85 1669.21,885.85 1669.21,1039.8 1742.76,1039.8 1742.76,1015.21 			"/>
		</g>
		<g>
			<g>
				<g>
					<g>
						<path class="st2" d="M865.82,1102.51c0.16-5.55-0.62-9.91-2.28-13.07c-1.61-3.16-5.24-6.02-10.79-8.56
							c-4.51-1.5-9.65-1.97-15.41-1.4h-12.81l-0.16,69.97h12.55l-0.05-21.58c5.55,0,10.84-0.78,15.87-2.28
							c5.34-2.8,8.92-5.65,10.79-8.71C865.46,1113.87,866.24,1109.04,865.82,1102.51z M841.39,1115.73h-4.51v-25.36h4.15
							c8.61,0.99,13.12,5.55,13.64,13.64C854.67,1111.07,850.26,1115.01,841.39,1115.73z"/>
					</g>
				</g>
				<g>
					<g>
						<path class="st2" d="M958.61,1125.95l4.56-4.51c4.05-4.05,6.17-9.34,6.43-15.92c-0.26-8.82-3.16-15.66-8.71-20.44
							c-4.67-3.73-11.31-5.6-19.97-5.6h-14.32v69.97h12.4l-0.05-28.01v-29.93c9.34-0.26,14.99,2.9,17.01,9.44
							c1.3,3.32,1.14,6.69-0.36,10.22c-2.28,5.86-7.21,9.23-14.78,10.27l19.5,28.01h14.99L958.61,1125.95z"/>
					</g>
				</g>
				<g>
					<g>
						<path class="st2" d="M1099.65,1088.4c-7.52-6.9-16.44-10.32-26.71-10.32c-10.32,0-19.19,3.42-26.61,10.32
							c-7.68,7.11-11.46,15.77-11.46,26.04c0,10.32,3.73,19.04,11.26,26.09c7.52,7,16.44,10.53,26.82,10.53
							c10.27,0,19.19-3.53,26.76-10.63c7.57-7.11,11.36-15.77,11.36-25.99C1111.06,1104.17,1107.27,1095.51,1099.65,1088.4z
							 M1091.04,1132.18c-5.08,4.88-11.1,7.31-18.1,7.31c-7,0-13.07-2.39-18.15-7.26c-5.08-4.88-7.62-10.79-7.62-17.79
							c0-7.16,2.54-13.12,7.52-17.95c5.03-4.82,11.1-7.26,18.26-7.26c7.11,0,13.17,2.44,18.21,7.31c5.03,4.82,7.52,10.79,7.52,17.89
							C1098.66,1121.34,1096.12,1127.3,1091.04,1132.18z"/>
					</g>
				</g>
				<g>
					<g>
						<path class="st2" d="M1170.08,1079.37l-0.42,11h17.84l0.26,33.92c0,10.27-2.59,15.41-7.78,15.41c-1.61,0-4.82-0.05-9.54-0.1
							v11.36h8.51c14.16,0,21.21-8.87,21.21-26.66v-44.81L1170.08,1079.37z"/>
					</g>
				</g>
				<g>
					<g>
						<path class="st2" d="M1272.89,1118.38h19.71v-12.09h-19.71v-14.42h21.21l-0.26-12.5l-33.45,0.1v69.97h33.45l0.26-12.86h-21.21
							V1118.38z"/>
					</g>
				</g>
				<g>
					<g>
						<path class="st2" d="M1390.01,1139.7c-7.05,0-13.07-2.54-18-7.68c-4.88-5.08-7.37-11.2-7.37-18.36
							c0-6.64,2.59-12.4,7.73-17.27c5.13-4.88,11.05-7.37,17.64-7.37c6.64,0,11.1,0.73,13.38,2.13l7.11-8.25
							c-3.89-1.92-7.05-3.16-9.6-3.79c-2.75-0.73-6.17-1.04-10.22-1.04c-10.01,0-18.88,3.37-26.51,10.11
							c-7.94,7-11.93,15.46-11.93,25.36c0,10.37,3.79,19.19,11.31,26.51c7.52,7.37,16.55,11,26.92,11c6.59,0,13.23-1.87,20.02-5.6
							l-7.11-9.65C1400.54,1138.4,1396.07,1139.7,1390.01,1139.7z"/>
					</g>
				</g>
				<g>
					<g>
						<path class="st2" d="M1469.26,1079.37l-0.36,11l14.47,0.26v58.82h12.34v-58.82l14.11-0.26v-11H1469.26z"/>
					</g>
				</g>
				<g>
					<g>
						<path class="st2" d="M1617.45,1123.98c-0.52-2.23-0.99-3.79-1.4-4.72c-1.14-2.65-3.48-5.24-7-7.78
							c-2.9-2.07-6.07-3.73-9.39-4.93c-5.24-1.87-8.04-2.96-8.45-3.11c-3.32-1.76-4.98-4.05-4.98-6.85c0-2.23,1.04-4.1,3.22-5.45
							c1.87-1.3,3.99-1.92,6.33-1.92c4.36,0,8.51,1.5,12.5,4.56l7.21-8.35c-4.31-4.98-10.74-7.47-19.35-7.47
							c-5.71,0-10.79,1.56-15.15,4.72c-4.77,3.53-7.16,8.09-7.16,13.74c0,6.38,2.7,11.36,8.19,14.94
							c5.14,2.33,10.27,4.72,15.35,7.11c5.5,2.59,8.25,5.81,8.25,9.65c0,3.22-1.04,5.91-3.01,8.09c-2.02,2.18-4.67,3.27-7.88,3.27
							c-6.9-0.93-12.71-4.3-17.53-10.11l-7.94,7.94c2.54,2.54,5.29,5.19,8.35,7.99c4.46,3.84,10.01,5.76,16.65,5.76
							c6.17,0,11.67-2.23,16.49-6.69c4.88-4.41,7.26-9.7,7.26-15.82C1618.02,1127.09,1617.81,1125.54,1617.45,1123.98z"/>
					</g>
				</g>
			</g>
		</g>
	</g>
	<g>
		<path class="st3" d="M571.82,882.66l-301.56,184.19c-0.57-1.5-1.19-3.01-1.71-4.56c-0.26-0.57-0.52-1.19-0.67-1.82
			c-0.83-2.23-1.61-4.51-2.33-6.85c-0.1-0.26-0.16-0.47-0.26-0.73c-0.83-2.65-1.56-5.34-2.23-8.04c-0.1-0.31-0.21-0.67-0.26-0.99
			c-0.26-0.93-0.47-1.87-0.67-2.8c-0.36-1.45-0.67-2.91-0.99-4.36c-0.16-0.52-0.21-0.99-0.31-1.45c-0.05-0.1-0.05-0.21-0.1-0.31
			l139.58-85.53l46.21-28.32l-188.75,91.24c-0.1-0.83-0.16-1.71-0.16-2.54c-0.05-0.42-0.1-0.83-0.1-1.3
			c-0.16-2.85-0.26-5.76-0.26-8.66c0-8.25,0.57-16.34,1.66-24.27l91.96-48.34l-87.87,27.7c1.4-5.65,3.16-11.26,5.13-16.7
			c25.16-68.57,90.98-117.48,168.26-117.48C490.49,820.73,538.99,844.74,571.82,882.66z"/>
		<path class="st2" d="M619.91,869.51L664,830.56l-75.52,25.42l38.12,3.58l-14.99,11.15l-30.86,23.08l-286.78,214.48
			c1.24,1.71,2.54,3.37,3.89,4.98c3.79,4.62,7.78,9.03,12.03,13.23L552.43,946.9l-47.04,42.69l-172.36,156.44
			c0.88,0.62,1.82,1.24,2.7,1.87c0.21,0.16,0.42,0.31,0.62,0.41c0.78,0.57,1.66,1.09,2.44,1.61c5.86,3.84,11.98,7.37,18.31,10.48
			l101.09-80.91l-78.68,90.2c5.53,1.86,11.2,3.43,16.96,4.75l-0.47,0.38c12.81,2.9,26.19,4.46,39.89,4.46
			c85.59,0,157.18-59.93,175.2-140.09c0.03-0.15,0.07-0.3,0.1-0.45c0.93-4.18,1.74-8.41,2.37-12.7c0-0.01,0-0.01,0-0.02
			c0.56-3.8,0.97-7.64,1.28-11.51c0.08-0.98,0.16-1.95,0.22-2.93c0.25-3.78,0.41-7.59,0.43-11.43c0-0.11,0.01-0.22,0.01-0.33
			c0-0.02,0-0.04,0-0.06c0-0.03,0-0.06,0-0.09c0-1.82-0.05-3.63-0.1-5.39l-0.11,0.09c-1.06-35.3-12.22-68.05-30.91-95.37
			L619.91,869.51z"/>
		<polygon class="st2" points="629.44,878.52 630.05,889.31 681.07,825.6 668.41,829.85 		"/>
	</g>
</g>
</svg>
